<svg width="96" height="88" viewBox="0 0 96 88" fill="none" xmlns="http://www.w3.org/2000/svg">
<path fill-rule="evenodd" clip-rule="evenodd" d="M48 79.75C69.54 79.75 87 63.745 87 44C87 24.255 69.54 8.25001 48 8.25001C26.46 8.25 8.99999 24.255 8.99999 44C8.99998 63.745 26.46 79.75 48 79.75ZM50.12 28.3067C49.5575 27.7917 48.795 27.5024 48 27.5024C47.205 27.5024 46.4425 27.7917 45.88 28.3067L33.88 39.3067C33.5852 39.5584 33.3488 39.862 33.1849 40.1994C33.0209 40.5367 32.9327 40.9008 32.9256 41.2701C32.9185 41.6393 32.9926 42.0061 33.1435 42.3485C33.2944 42.6909 33.519 43.002 33.8038 43.2631C34.0887 43.5243 34.428 43.7301 34.8016 43.8685C35.1752 44.0068 35.5753 44.0747 35.9781 44.0682C36.3809 44.0617 36.7781 43.9808 37.1461 43.8305C37.5141 43.6802 37.8453 43.4635 38.12 43.1933L45 36.8867L45 57.75C45 58.4793 45.3161 59.1788 45.8787 59.6945C46.4413 60.2103 47.2043 60.5 48 60.5C48.7956 60.5 49.5587 60.2103 50.1213 59.6945C50.6839 59.1788 51 58.4793 51 57.75L51 36.8867L57.88 43.1933C58.4487 43.6791 59.2009 43.9435 59.9781 43.931C60.7553 43.9184 61.4968 43.6298 62.0465 43.1259C62.5961 42.6221 62.911 41.9424 62.9247 41.2299C62.9384 40.5175 62.6499 39.828 62.12 39.3067L50.12 28.3067V28.3067Z" fill="#4FBF8C"/>
</svg>
